<mxfile host="65bd71144e">
    <diagram id="WV3jIhIPOdwx7-xBaQpg" name="Page-3">
        <mxGraphModel dx="802" dy="378" grid="1" gridSize="10" guides="1" tooltips="1" connect="1" arrows="1" fold="1" page="1" pageScale="1" pageWidth="850" pageHeight="1100" math="0" shadow="0">
            <root>
                <mxCell id="0"/>
                <mxCell id="1" parent="0"/>
                <mxCell id="2" value="Hub" style="rounded=1;whiteSpace=wrap;html=1;arcSize=7;verticalAlign=top;dashed=1;fillColor=#dae8fc;strokeColor=#6c8ebf;" vertex="1" parent="1">
                    <mxGeometry x="1240" y="430" width="160" height="130" as="geometry"/>
                </mxCell>
                <mxCell id="3" value="Gateway Server" style="rounded=1;whiteSpace=wrap;html=1;arcSize=4;verticalAlign=top;dashed=1;" vertex="1" parent="1">
                    <mxGeometry x="420" y="240" width="790" height="320" as="geometry"/>
                </mxCell>
                <mxCell id="4" value="Filesystem" style="rounded=1;whiteSpace=wrap;html=1;verticalAlign=bottom;" vertex="1" parent="1">
                    <mxGeometry x="500" y="442.5" width="700" height="107.5" as="geometry"/>
                </mxCell>
                <mxCell id="5" value="" style="rounded=1;whiteSpace=wrap;html=1;fillColor=#dae8fc;strokeColor=#6c8ebf;" vertex="1" parent="1">
                    <mxGeometry x="870" y="302.5" width="120" height="60" as="geometry"/>
                </mxCell>
                <mxCell id="6" value="" style="rounded=1;whiteSpace=wrap;html=1;fillColor=#dae8fc;strokeColor=#6c8ebf;" vertex="1" parent="1">
                    <mxGeometry x="880" y="312.5" width="120" height="60" as="geometry"/>
                </mxCell>
                <mxCell id="7" style="edgeStyle=orthogonalEdgeStyle;html=1;exitX=0.75;exitY=1;exitDx=0;exitDy=0;entryX=0;entryY=0.5;entryDx=0;entryDy=0;dashed=1;" edge="1" parent="1" source="8" target="16">
                    <mxGeometry relative="1" as="geometry"/>
                </mxCell>
                <mxCell id="8" value="gateway (spool)" style="rounded=1;whiteSpace=wrap;html=1;fillColor=#dae8fc;strokeColor=#6c8ebf;" vertex="1" parent="1">
                    <mxGeometry x="890" y="322.5" width="120" height="60" as="geometry"/>
                </mxCell>
                <mxCell id="9" style="edgeStyle=orthogonalEdgeStyle;html=1;exitX=0.5;exitY=1;exitDx=0;exitDy=0;entryX=0;entryY=0.5;entryDx=0;entryDy=0;dashed=1;" edge="1" parent="1" source="10" target="12">
                    <mxGeometry relative="1" as="geometry">
                        <Array as="points">
                            <mxPoint x="490" y="468"/>
                        </Array>
                    </mxGeometry>
                </mxCell>
                <mxCell id="10" value="rsyslog" style="rounded=1;whiteSpace=wrap;html=1;fillColor=#d5e8d4;strokeColor=#82b366;" vertex="1" parent="1">
                    <mxGeometry x="430" y="322.5" width="120" height="60" as="geometry"/>
                </mxCell>
                <mxCell id="12" value="logs" style="rounded=1;whiteSpace=wrap;html=1;fillColor=#d5e8d4;strokeColor=#82b366;" vertex="1" parent="1">
                    <mxGeometry x="520" y="452.5" width="80" height="30" as="geometry"/>
                </mxCell>
                <mxCell id="13" style="edgeStyle=orthogonalEdgeStyle;html=1;exitX=1;exitY=0.5;exitDx=0;exitDy=0;entryX=0.25;entryY=1;entryDx=0;entryDy=0;dashed=1;" edge="1" parent="1" source="14" target="8">
                    <mxGeometry relative="1" as="geometry"/>
                </mxCell>
                <mxCell id="14" value="BSONs" style="rounded=1;whiteSpace=wrap;html=1;fillColor=#dae8fc;strokeColor=#6c8ebf;" vertex="1" parent="1">
                    <mxGeometry x="830" y="452.5" width="80" height="30" as="geometry"/>
                </mxCell>
                <mxCell id="15" style="edgeStyle=orthogonalEdgeStyle;html=1;exitX=1;exitY=0.5;exitDx=0;exitDy=0;entryX=0;entryY=0.5;entryDx=0;entryDy=0;dashed=1;" edge="1" parent="1" source="16" target="17">
                    <mxGeometry relative="1" as="geometry"/>
                </mxCell>
                <mxCell id="16" value="PARTs" style="rounded=1;whiteSpace=wrap;html=1;fillColor=#dae8fc;strokeColor=#6c8ebf;" vertex="1" parent="1">
                    <mxGeometry x="1070" y="452.5" width="120" height="30" as="geometry"/>
                </mxCell>
                <mxCell id="17" value="sonargd" style="rounded=1;whiteSpace=wrap;html=1;" vertex="1" parent="1">
                    <mxGeometry x="1260" y="470" width="120" height="62.5" as="geometry"/>
                </mxCell>
                <mxCell id="18" style="edgeStyle=orthogonalEdgeStyle;html=1;exitX=1;exitY=0.5;exitDx=0;exitDy=0;entryX=0;entryY=0.5;entryDx=0;entryDy=0;dashed=1;" edge="1" parent="1" source="19" target="22">
                    <mxGeometry relative="1" as="geometry">
                        <Array as="points">
                            <mxPoint x="1020" y="508"/>
                            <mxPoint x="1020" y="328"/>
                        </Array>
                    </mxGeometry>
                </mxCell>
                <mxCell id="19" value="security events" style="rounded=1;whiteSpace=wrap;html=1;fillColor=#fff2cc;strokeColor=#d6b656;" vertex="1" parent="1">
                    <mxGeometry x="830" y="492.5" width="80" height="30" as="geometry"/>
                </mxCell>
                <mxCell id="20" style="edgeStyle=orthogonalEdgeStyle;html=1;exitX=1;exitY=0.25;exitDx=0;exitDy=0;entryX=0;entryY=0.5;entryDx=0;entryDy=0;dashed=1;" edge="1" parent="1" source="22" target="23">
                    <mxGeometry relative="1" as="geometry"/>
                </mxCell>
                <mxCell id="21" style="edgeStyle=orthogonalEdgeStyle;html=1;exitX=1;exitY=0.75;exitDx=0;exitDy=0;entryX=0;entryY=0.5;entryDx=0;entryDy=0;dashed=1;" edge="1" parent="1" source="22" target="24">
                    <mxGeometry relative="1" as="geometry"/>
                </mxCell>
                <mxCell id="22" value="Corrective Agent" style="rounded=1;whiteSpace=wrap;html=1;fillColor=#fff2cc;strokeColor=#d6b656;" vertex="1" parent="1">
                    <mxGeometry x="1070" y="297.5" width="120" height="60" as="geometry"/>
                </mxCell>
                <mxCell id="23" value="DB #1" style="rounded=1;whiteSpace=wrap;html=1;arcSize=22;verticalAlign=middle;dashed=1;fillColor=#fff2cc;strokeColor=#d6b656;" vertex="1" parent="1">
                    <mxGeometry x="1240" y="240" width="160" height="50" as="geometry"/>
                </mxCell>
                <mxCell id="24" value="DB #N" style="rounded=1;whiteSpace=wrap;html=1;arcSize=22;verticalAlign=middle;dashed=1;fillColor=#fff2cc;strokeColor=#d6b656;" vertex="1" parent="1">
                    <mxGeometry x="1240" y="362.5" width="160" height="50" as="geometry"/>
                </mxCell>
                <mxCell id="25" value="" style="endArrow=none;dashed=1;html=1;dashPattern=1 3;strokeWidth=2;fillColor=#fff2cc;strokeColor=#000000;" edge="1" parent="1">
                    <mxGeometry width="50" height="50" relative="1" as="geometry">
                        <mxPoint x="1319.5" y="345" as="sourcePoint"/>
                        <mxPoint x="1319.54" y="307.5" as="targetPoint"/>
                    </mxGeometry>
                </mxCell>
                <mxCell id="41" value="" style="rounded=1;whiteSpace=wrap;html=1;fillColor=#d5e8d4;strokeColor=#82b366;verticalAlign=top;" vertex="1" parent="1">
                    <mxGeometry x="575" y="272.5" width="160" height="97.5" as="geometry"/>
                </mxCell>
                <mxCell id="42" value="" style="rounded=1;whiteSpace=wrap;html=1;fillColor=#d5e8d4;strokeColor=#82b366;verticalAlign=top;" vertex="1" parent="1">
                    <mxGeometry x="585" y="282.5" width="160" height="97.5" as="geometry"/>
                </mxCell>
                <mxCell id="43" value="" style="rounded=1;whiteSpace=wrap;html=1;fillColor=#d5e8d4;strokeColor=#82b366;verticalAlign=top;" vertex="1" parent="1">
                    <mxGeometry x="595" y="292.5" width="160" height="97.5" as="geometry"/>
                </mxCell>
                <mxCell id="44" value="" style="rounded=1;whiteSpace=wrap;html=1;fillColor=#d5e8d4;strokeColor=#82b366;verticalAlign=top;" vertex="1" parent="1">
                    <mxGeometry x="605" y="302.5" width="160" height="97.5" as="geometry"/>
                </mxCell>
                <mxCell id="45" value="" style="rounded=1;whiteSpace=wrap;html=1;fillColor=#d5e8d4;strokeColor=#82b366;verticalAlign=top;" vertex="1" parent="1">
                    <mxGeometry x="615" y="312.5" width="160" height="97.5" as="geometry"/>
                </mxCell>
                <mxCell id="46" value="" style="rounded=1;whiteSpace=wrap;html=1;fillColor=#d5e8d4;strokeColor=#82b366;verticalAlign=top;" vertex="1" parent="1">
                    <mxGeometry x="625" y="322.5" width="160" height="97.5" as="geometry"/>
                </mxCell>
                <mxCell id="33" value="gateway (stdin)" style="rounded=1;whiteSpace=wrap;html=1;fillColor=#d5e8d4;strokeColor=#82b366;verticalAlign=top;" vertex="1" parent="1">
                    <mxGeometry x="640" y="332.5" width="160" height="97.5" as="geometry"/>
                </mxCell>
                <mxCell id="34" style="edgeStyle=orthogonalEdgeStyle;html=1;exitX=1;exitY=0.25;exitDx=0;exitDy=0;entryX=0;entryY=0.25;entryDx=0;entryDy=0;dashed=1;" edge="1" parent="1" source="36" target="37">
                    <mxGeometry relative="1" as="geometry"/>
                </mxCell>
                <mxCell id="35" style="edgeStyle=orthogonalEdgeStyle;html=1;exitX=1;exitY=0.75;exitDx=0;exitDy=0;entryX=0;entryY=0.5;entryDx=0;entryDy=0;dashed=1;" edge="1" parent="1" source="36" target="38">
                    <mxGeometry relative="1" as="geometry"/>
                </mxCell>
                <mxCell id="36" value="null" style="rounded=1;whiteSpace=wrap;html=1;" vertex="1" parent="1">
                    <mxGeometry x="657.5" y="375" width="40" height="25" as="geometry"/>
                </mxCell>
                <mxCell id="37" value="audit" style="rounded=1;whiteSpace=wrap;html=1;" vertex="1" parent="1">
                    <mxGeometry x="730" y="360" width="55" height="25" as="geometry"/>
                </mxCell>
                <mxCell id="38" value="security" style="rounded=1;whiteSpace=wrap;html=1;" vertex="1" parent="1">
                    <mxGeometry x="730" y="395" width="55" height="25" as="geometry"/>
                </mxCell>
                <mxCell id="39" style="edgeStyle=orthogonalEdgeStyle;html=1;exitX=1;exitY=0.5;exitDx=0;exitDy=0;entryX=0;entryY=0.5;entryDx=0;entryDy=0;dashed=1;" edge="1" parent="1" source="37" target="14">
                    <mxGeometry relative="1" as="geometry">
                        <mxPoint x="750" y="417.5" as="sourcePoint"/>
                    </mxGeometry>
                </mxCell>
                <mxCell id="40" style="edgeStyle=orthogonalEdgeStyle;html=1;exitX=1;exitY=0.5;exitDx=0;exitDy=0;entryX=0;entryY=0.5;entryDx=0;entryDy=0;dashed=1;" edge="1" parent="1" source="38" target="19">
                    <mxGeometry relative="1" as="geometry">
                        <mxPoint x="720" y="417.5" as="sourcePoint"/>
                        <Array as="points">
                            <mxPoint x="800" y="407"/>
                            <mxPoint x="800" y="507"/>
                        </Array>
                    </mxGeometry>
                </mxCell>
                <mxCell id="11" style="edgeStyle=orthogonalEdgeStyle;html=1;exitX=1;exitY=0.5;exitDx=0;exitDy=0;entryX=0;entryY=0.5;entryDx=0;entryDy=0;dashed=1;" edge="1" parent="1" source="12" target="36">
                    <mxGeometry relative="1" as="geometry">
                        <mxPoint x="690" y="417.5" as="targetPoint"/>
                    </mxGeometry>
                </mxCell>
            </root>
        </mxGraphModel>
    </diagram>
    <diagram id="63TIno1VBc4Kutu3cTuL" name="Page-2">
        <mxGraphModel dx="736" dy="764" grid="1" gridSize="10" guides="1" tooltips="1" connect="1" arrows="1" fold="1" page="1" pageScale="1" pageWidth="850" pageHeight="1100" math="0" shadow="0">
            <root>
                <mxCell id="0"/>
                <mxCell id="1" parent="0"/>
            </root>
        </mxGraphModel>
    </diagram>
    <diagram id="_8653aPivu7MpHj3u6wP" name="Page-4">
        <mxGraphModel dx="699" dy="726" grid="1" gridSize="10" guides="1" tooltips="1" connect="1" arrows="1" fold="1" page="1" pageScale="1" pageWidth="850" pageHeight="1100" math="0" shadow="0">
            <root>
                <mxCell id="0"/>
                <mxCell id="1" parent="0"/>
                <mxCell id="QNXpD7DQXcU9knoYbjPm-1" value="Hub" style="rounded=1;whiteSpace=wrap;html=1;arcSize=7;verticalAlign=top;dashed=1;fillColor=#fff2cc;strokeColor=#d6b656;" vertex="1" parent="1">
                    <mxGeometry x="660" y="157.5" width="160" height="282.5" as="geometry"/>
                </mxCell>
                <mxCell id="QNXpD7DQXcU9knoYbjPm-2" value="Gateway Server" style="rounded=1;whiteSpace=wrap;html=1;arcSize=7;verticalAlign=top;dashed=1;fillColor=#fff2cc;strokeColor=#d6b656;" vertex="1" parent="1">
                    <mxGeometry x="10" y="157.5" width="630" height="282.5" as="geometry"/>
                </mxCell>
                <mxCell id="QNXpD7DQXcU9knoYbjPm-3" value="Filesystem" style="rounded=1;whiteSpace=wrap;html=1;fillColor=#f5f5f5;fontColor=#333333;strokeColor=#666666;verticalAlign=bottom;" vertex="1" parent="1">
                    <mxGeometry x="160" y="360" width="460" height="60" as="geometry"/>
                </mxCell>
                <mxCell id="QNXpD7DQXcU9knoYbjPm-4" value="" style="rounded=1;whiteSpace=wrap;html=1;fillColor=#d5e8d4;strokeColor=#82b366;" vertex="1" parent="1">
                    <mxGeometry x="190" y="205" width="120" height="60" as="geometry"/>
                </mxCell>
                <mxCell id="QNXpD7DQXcU9knoYbjPm-5" value="" style="rounded=1;whiteSpace=wrap;html=1;fillColor=#d5e8d4;strokeColor=#82b366;" vertex="1" parent="1">
                    <mxGeometry x="200" y="215" width="120" height="60" as="geometry"/>
                </mxCell>
                <mxCell id="QNXpD7DQXcU9knoYbjPm-6" value="" style="rounded=1;whiteSpace=wrap;html=1;fillColor=#d5e8d4;strokeColor=#82b366;" vertex="1" parent="1">
                    <mxGeometry x="210" y="225" width="120" height="60" as="geometry"/>
                </mxCell>
                <mxCell id="QNXpD7DQXcU9knoYbjPm-7" value="" style="rounded=1;whiteSpace=wrap;html=1;fillColor=#d5e8d4;strokeColor=#82b366;" vertex="1" parent="1">
                    <mxGeometry x="220" y="235" width="120" height="60" as="geometry"/>
                </mxCell>
                <mxCell id="QNXpD7DQXcU9knoYbjPm-8" value="" style="rounded=1;whiteSpace=wrap;html=1;fillColor=#d5e8d4;strokeColor=#82b366;" vertex="1" parent="1">
                    <mxGeometry x="230" y="245" width="120" height="60" as="geometry"/>
                </mxCell>
                <mxCell id="QNXpD7DQXcU9knoYbjPm-9" value="" style="rounded=1;whiteSpace=wrap;html=1;fillColor=#d5e8d4;strokeColor=#82b366;" vertex="1" parent="1">
                    <mxGeometry x="240" y="255" width="120" height="60" as="geometry"/>
                </mxCell>
                <mxCell id="QNXpD7DQXcU9knoYbjPm-10" value="" style="rounded=1;whiteSpace=wrap;html=1;fillColor=#d5e8d4;strokeColor=#82b366;" vertex="1" parent="1">
                    <mxGeometry x="250" y="265" width="120" height="60" as="geometry"/>
                </mxCell>
                <mxCell id="QNXpD7DQXcU9knoYbjPm-11" style="edgeStyle=orthogonalEdgeStyle;html=1;exitX=0.75;exitY=1;exitDx=0;exitDy=0;entryX=0.25;entryY=0;entryDx=0;entryDy=0;dashed=1;" edge="1" parent="1" source="QNXpD7DQXcU9knoYbjPm-12" target="QNXpD7DQXcU9knoYbjPm-22">
                    <mxGeometry relative="1" as="geometry"/>
                </mxCell>
                <mxCell id="QNXpD7DQXcU9knoYbjPm-12" value="gateway (stdin)" style="rounded=1;whiteSpace=wrap;html=1;fillColor=#d5e8d4;strokeColor=#82b366;" vertex="1" parent="1">
                    <mxGeometry x="260" y="275" width="120" height="60" as="geometry"/>
                </mxCell>
                <mxCell id="QNXpD7DQXcU9knoYbjPm-13" value="" style="rounded=1;whiteSpace=wrap;html=1;fillColor=#d5e8d4;strokeColor=#82b366;" vertex="1" parent="1">
                    <mxGeometry x="410" y="220" width="120" height="60" as="geometry"/>
                </mxCell>
                <mxCell id="QNXpD7DQXcU9knoYbjPm-14" value="" style="rounded=1;whiteSpace=wrap;html=1;fillColor=#d5e8d4;strokeColor=#82b366;" vertex="1" parent="1">
                    <mxGeometry x="420" y="230" width="120" height="60" as="geometry"/>
                </mxCell>
                <mxCell id="QNXpD7DQXcU9knoYbjPm-15" style="edgeStyle=orthogonalEdgeStyle;html=1;exitX=0.5;exitY=1;exitDx=0;exitDy=0;entryX=0.25;entryY=0;entryDx=0;entryDy=0;dashed=1;" edge="1" parent="1" source="QNXpD7DQXcU9knoYbjPm-16" target="QNXpD7DQXcU9knoYbjPm-24">
                    <mxGeometry relative="1" as="geometry"/>
                </mxCell>
                <mxCell id="QNXpD7DQXcU9knoYbjPm-16" value="gateway (spool)" style="rounded=1;whiteSpace=wrap;html=1;fillColor=#d5e8d4;strokeColor=#82b366;" vertex="1" parent="1">
                    <mxGeometry x="430" y="240" width="120" height="60" as="geometry"/>
                </mxCell>
                <mxCell id="QNXpD7DQXcU9knoYbjPm-17" style="edgeStyle=orthogonalEdgeStyle;html=1;exitX=0.25;exitY=1;exitDx=0;exitDy=0;entryX=0.25;entryY=0;entryDx=0;entryDy=0;dashed=1;" edge="1" parent="1" source="QNXpD7DQXcU9knoYbjPm-18" target="QNXpD7DQXcU9knoYbjPm-20">
                    <mxGeometry relative="1" as="geometry"/>
                </mxCell>
                <mxCell id="QNXpD7DQXcU9knoYbjPm-18" value="rsyslog" style="rounded=1;whiteSpace=wrap;html=1;fillColor=#d5e8d4;strokeColor=#82b366;" vertex="1" parent="1">
                    <mxGeometry x="30" y="240" width="120" height="60" as="geometry"/>
                </mxCell>
                <mxCell id="QNXpD7DQXcU9knoYbjPm-19" style="edgeStyle=orthogonalEdgeStyle;html=1;exitX=0.75;exitY=0;exitDx=0;exitDy=0;entryX=0.25;entryY=1;entryDx=0;entryDy=0;dashed=1;" edge="1" parent="1" source="QNXpD7DQXcU9knoYbjPm-20" target="QNXpD7DQXcU9knoYbjPm-12">
                    <mxGeometry relative="1" as="geometry"/>
                </mxCell>
                <mxCell id="QNXpD7DQXcU9knoYbjPm-20" value="logs" style="rounded=1;whiteSpace=wrap;html=1;fillColor=#e1d5e7;strokeColor=#9673a6;" vertex="1" parent="1">
                    <mxGeometry x="180" y="370" width="130" height="30" as="geometry"/>
                </mxCell>
                <mxCell id="QNXpD7DQXcU9knoYbjPm-21" style="edgeStyle=orthogonalEdgeStyle;html=1;exitX=0.5;exitY=0;exitDx=0;exitDy=0;entryX=0.25;entryY=1;entryDx=0;entryDy=0;dashed=1;" edge="1" parent="1" source="QNXpD7DQXcU9knoYbjPm-22" target="QNXpD7DQXcU9knoYbjPm-16">
                    <mxGeometry relative="1" as="geometry"/>
                </mxCell>
                <mxCell id="QNXpD7DQXcU9knoYbjPm-22" value="bsons" style="rounded=1;whiteSpace=wrap;html=1;fillColor=#e1d5e7;strokeColor=#9673a6;" vertex="1" parent="1">
                    <mxGeometry x="330" y="370" width="120" height="30" as="geometry"/>
                </mxCell>
                <mxCell id="QNXpD7DQXcU9knoYbjPm-23" style="edgeStyle=orthogonalEdgeStyle;html=1;exitX=0.75;exitY=0;exitDx=0;exitDy=0;entryX=0.25;entryY=1;entryDx=0;entryDy=0;dashed=1;" edge="1" parent="1" source="QNXpD7DQXcU9knoYbjPm-24" target="QNXpD7DQXcU9knoYbjPm-25">
                    <mxGeometry relative="1" as="geometry"/>
                </mxCell>
                <mxCell id="QNXpD7DQXcU9knoYbjPm-24" value="parts" style="rounded=1;whiteSpace=wrap;html=1;fillColor=#e1d5e7;strokeColor=#9673a6;" vertex="1" parent="1">
                    <mxGeometry x="480" y="370" width="120" height="30" as="geometry"/>
                </mxCell>
                <mxCell id="QNXpD7DQXcU9knoYbjPm-25" value="sonargd" style="rounded=1;whiteSpace=wrap;html=1;fillColor=#d5e8d4;strokeColor=#82b366;" vertex="1" parent="1">
                    <mxGeometry x="680" y="240" width="120" height="60" as="geometry"/>
                </mxCell>
            </root>
        </mxGraphModel>
    </diagram>
</mxfile>